# ProBuilder 5.0.4
# https://unity3d.com/unity/features/worldbuilding/probuilder
# 11.05.2022 01:19:49

mtllib ./Tree.mtl
o Tree

g Tree
v 27.05992 8.896953 1.749085
v 25.93907 8.2726 1.057131
v 25.93907 10.00419 3.131108
v 27.77646 10.00419 2.323517
v 24.10171 8.2726 1.088599
v 24.10171 10.00419 2.843109
v 24.10171 11.73578 2.606697
v 25.93907 11.73578 2.758109
v 24.94254 11.73578 2.505608
v 22.26435 8.2726 0.9958561
v 22.26435 10.00419 2.51574
v 26.95135 8.722733 1.440446
v 21.18946 10.00419 1.945884
v 20.42697 11.73578 1.826476
v 22.26435 11.73578 1.497045
v 23.50558 13.46737 1.662024
v 24.10171 13.46737 2.545439
v 21.71315 13.46737 1.806112
v 20.86555 13.57832 -1.601709
v 23.30909 14.33963 0.6527409
v 24.10171 15.19896 1.732501
v 25.93907 13.46737 3.160069
v 27.77646 13.46737 1.157885
v 25.93907 14.23192 1.98512
v 25.96756 14.21571 1.395654
v 21.81381 8.79064 1.851683
v 21.02092 10.00419 0.4873762
v 22.33592 8.2726 -1.669572
v 20.42698 10.00419 -1.669572
v 19.8427 11.73578 -1.669572
v 20.42698 11.73578 1.656393
v 21.32786 8.56965 -4.995536
v 20.42698 10.00419 -4.995536
v 21.3698 9.081822 -7.026489
v 20.96963 10.00419 -7.027168
v 20.84044 11.73578 -7.513817
v 19.50422 11.73578 -4.995536
v 19.88799 13.46737 -4.995536
v 19.81157 13.46737 -1.669572
v 22.01399 13.46737 -7.222944
v 22.02197 14.7675 -7.297644
v 20.64924 14.63316 -4.995536
v 22.39468 14.27826 -1.669572
v 21.49114 13.46737 -1.378111
v 22.02522 14.64554 -1.072966
v 24.10171 8.2726 -7.207943
v 24.10171 10.00419 -8.321501
v 22.26435 10.00419 -8.321501
v 22.71497 8.2726 -6.060908
v 24.10171 11.73578 -8.321501
v 22.26435 11.73578 -8.321501
v 27.05459 8.2726 -5.522687
v 27.77646 10.00419 -7.322818
v 25.93908 10.00419 -8.321501
v 26.35703 8.834577 -7.054169
v 27.30821 12.1932 -8.321501
v 25.93908 11.73578 -8.321501
v 28.43188 13.46737 -7.049032
v 25.93908 13.46737 -8.321501
v 27.22846 14.37515 -6.581388
v 25.93907 15.19896 -6.838473
v 23.81303 15.10636 -7.751988
v 24.10171 13.46737 -8.321501
v 22.26435 13.46737 -8.321501
v 22.26435 14.72169 -7.89145
v 27.77646 9.204912 -1.669572
v 27.15217 10.00419 -1.669572
v 27.02124 10.00419 -4.995536
v 27.27341 8.2726 -4.995536
v 28.79561 11.73578 -1.669572
v 28.98105 11.73578 -5.578046
v 27.77644 10.00419 1.656393
v 27.34109 8.769143 1.656393
v 27.77644 11.73578 1.656393
v 27.77644 13.46737 1.656393
v 27.77646 13.81619 1.656393
v 25.653 14.47376 -2.906601
v 28.72606 13.97469 -1.669572
v 27.77644 13.46737 -4.995536
v 26.95702 14.70772 -4.995536
v 24.10171 15.39908 -1.676862
v 25.93908 15.19896 -1.669572
v 25.93908 15.19896 1.656393
v 24.10171 15.19896 0.5295365
v 22.26435 15.19896 -1.669572
v 22.97361 15.19896 -0.5392709
v 22.26435 15.19896 -4.995536
v 24.10171 15.50443 -5.094245
v 25.93908 15.19896 -4.995536
v 24.10171 8.2726 -1.669572
v 25.93908 8.2726 -1.669572
v 25.93908 8.2726 -4.995536
v 24.10171 8.2726 -4.995536
v 22.26435 8.2726 -1.669572
v 22.26435 8.2726 -4.995536
v 22.26435 8.060169 1.425588
v 24.10171 8.2726 1.656393
v 25.93908 8.2726 1.656393

vt 0.4430011 -0.08398972
vt 0.3749867 -0.111466
vt 0.3890462 -0.04201311
vt 0.4873763 -0.02886743
vt 0.2713971 -0.1146874
vt 0.283291 -0.04114959
vt 0.2816883 0.05784582
vt 0.3865176 0.05872882
vt 0.3285062 0.06042852
vt 0.1669655 -0.1163206
vt 0.1772688 -0.03978265
vt 0.4347749 -0.08986583
vt 0.1126784 -0.03414523
vt 0.06879149 0.06218418
vt 0.1703631 0.06921569
vt 0.2416057 0.164983
vt 0.281273 0.1546016
vt 0.1413172 0.1603904
vt 0.07032975 0.2088149
vt 0.2236625 0.2259316
vt 0.2757621 0.260969
vt 0.3892425 0.1495615
vt 0.4794745 0.1779822
vt 0.3812775 0.2069604
vt 0.3788912 0.213643
vt 0.5893775 0.005499426
vt 0.5838259 0.02805109
vt 0.5021235 0.09933721
vt 0.5856554 0.0992507
vt 0.3873707 -0.004511205
vt 0.3766557 0.1007095
vt 0.3733761 0.2011478
vt 0.5649836 0.2002287
vt 0.5746142 0.2002896
vt 0.1933845 0.01480596
vt 0.1883278 0.0995192
vt 0.07862011 0.04301159
vt 0.07633552 0.09683298
vt 0.04805455 0.195454
vt 0.1831482 0.2011795
vt 0.1853024 0.2981228
vt 0.3732013 0.299589
vt 0.07111205 0.28965
vt 0.06692704 0.3634229
vt 0.1895753 0.3615742
vt 0.3877005 0.3363096
vt 0.3991324 0.2936295
vt 0.5806805 0.2939676
vt 0.4194086 0.3587131
vt 0.38296 0.3021087
vt -0.201782 -0.00581082
vt -0.2080646 0.09685412
vt -0.1040318 0.09757308
vt -0.1167923 -0.009772556
vt -0.2080646 0.1951462
vt -0.1040318 0.1958651
vt -0.0188524 0.1932506
vt -0.02342144 0.09299693
vt -0.04607533 0.04048037
vt -0.359468 -0.01358423
vt -0.4104966 0.09149441
vt -0.3120974 0.09613515
vt -0.3286122 0.02460289
vt -0.3896187 0.2198568
vt -0.3120974 0.1944272
vt -0.4460625 0.2867468
vt -0.3120974 0.2927192
vt -0.3752858 0.3369105
vt -0.3037297 0.3851875
vt -0.1885063 0.3843507
vt -0.2080646 0.2934382
vt -0.1040318 0.2941572
vt -0.101606 0.3636688
vt -0.08453168 0.3640322
vt -0.08365852 0.2899411
vt -0.2517494 -0.07042671
vt -0.2613257 -0.01803162
vt -0.08109004 -0.003976764
vt -0.07722175 -0.1029265
vt -0.2361158 0.05583182
vt -0.01910883 0.06785804
vt 0.1055561 0.1254176
vt 0.05801674 -0.005348972
vt -0.05169353 -0.09807763
vt -0.450064 -0.09061426
vt -0.4705482 -0.04108702
vt -0.4339938 -0.03861524
vt -0.4406719 -0.101049
vt -0.5239974 0.09135442
vt -0.4339938 0.05699723
vt -0.4066781 0.1544563
vt -0.4339938 0.1526097
vt -0.4474545 0.218835
vt -0.4339935 0.17187
vt -0.2165404 0.2531856
vt -0.2371827 0.1803773
vt -0.06950548 0.177254
vt -0.08207525 0.2565863
vt 0.008984469 0.2405055
vt 0.05306884 0.1761878
vt -0.2019845 0.2731823
vt -0.3067153 0.2757977
vt -0.3067153 0.4599141
vt -0.2021832 0.3979566
vt -0.2911603 0.2169303
vt -0.4126218 0.4776925
vt -0.3093125 0.4584157
vt -0.3076754 0.49084
vt -0.2021832 0.4645494
vt -0.1059808 0.288731
vt -0.09765118 0.2766422
vt -0.1380031 0.3390495
vt -0.08459642 0.317008
vt -0.1579425 0.4162699
vt -0.0196799 0.3020519
vt -0.08429029 -0.02917779
vt -0.09812573 -0.06150199
vt -0.09765118 0.09252588
vt -0.006325889 0.1003444
vt -0.1858516 -0.0592009
vt -0.2018798 0.08261858
vt -0.3067148 -0.01033854
vt -0.3067153 0.09168141
vt -0.38089 0.01444009
vt -0.3651163 0.09791335
vt 0.2090359 0.3784773
vt 0.3135543 0.3784668
vt 0.3135543 0.1892175
vt 0.2090359 0.1892281
vt 0.416812 0.3782307
vt 0.3894581 0.1892098
vt 0.3770105 0.1592159
vt 0.3365693 0.07194188
vt 0.2090359 0.06334088
vt 0.108589 0.3784875
vt 0.1045175 0.3784879
vt 0.1045175 0.1892387
vt 0.05084352 0.1891722
vt 0.1301512 0.1286158
vt 0.05253585 0.07348576
vt 0.3705284 0.5553138
vt 0.1045179 0.5301522
vt 0.1048054 0.5546556
vt 0.07818748 0.5787265
vt 0.2090359 0.5354187
vt 0.2090359 0.5677266
vt 0.3135538 0.5336177
vt 0.3135543 0.567716
vt 0.3764688 0.5728328
vt 0.3926361 0.5675879

vn 3.129025 -11.94747 12.1097
vn 0.5609578 -13.48364 11.25767
vn 5.697092 -10.41129 12.96173
vn -0.772624 -12.96521 11.77554
vn 0.2114099 -12.50748 12.34409
vn -1.756658 -13.42295 11.207
vn -2.697067 2.349184 17.20655
vn -2.05414 3.019005 17.16568
vn -1.411212 3.688827 17.12481
vn 5.396384 5.654409 0.2856533
vn 3.854818 7.908628 -15.21355
vn 6.937949 3.400189 15.78486
vn -1.424371 -11.99825 12.72402
vn -0.6662157 -11.58494 13.19862
vn -2.182527 -12.41155 12.24941
vn -2.949302 -1.016864 -1.483549
vn 0.6063263 8.736156 -15.23713
vn -6.50493 -10.76988 12.27003
vn -8.146179 -2.527485 15.36586
vn -2.7311 3.139633 15.16784
vn 2.68398 8.806751 14.96982
vn -5.84584 5.424017 14.95699
vn -9.024059 2.040007 14.94199
vn -2.66762 8.808028 14.97199
vn -11.64662 2.613643 12.14031
vn -8.728248 4.879585 14.45218
vn -14.56499 0.3477019 9.828446
vn 2.235853 -2.366657 17.24709
vn 3.079586 -2.08544 17.1763
vn 1.392121 -2.647874 17.31788
vn 0.04507284 17.56536 0.5607026
vn -5.84479 13.12333 5.174002
vn -11.73465 8.681294 9.787301
vn -14.18305 5.573921 8.508348
vn -15.13383 3.796909 8.087572
vn -13.23226 7.350933 8.929122
vn 7.460417 -3.009872 -3.396168
vn 4.211287 3.858157 -16.62041
vn 10.70955 -9.8779 9.828069
vn -3.443689 -1.579577 16.89047
vn -1.44247 0.6192448 17.50411
vn -5.444908 -3.778399 16.27682
vn -5.093286 7.148075 15.22569
vn 0.4746818 10.49015 12.11324
vn 6.042649 13.83222 9.000793
vn 7.841597 14.45378 4.058547
vn 6.704376 16.24483 -0.1226986
vn 8.978817 12.66273 8.239793
vn -1.347818 -1.872033 5.869682
vn 1.082044 13.41393 11.30283
vn -3.77768 -17.15799 0.4365374
vn -13.94515 -9.272883 2.296443
vn -11.80705 -13.01633 0.1642448
vn -16.08324 -5.529441 4.428642
vn -16.11259 -5.436755 4.436722
vn -15.93493 -6.355128 3.602415
vn -15.75728 -7.273502 2.768109
vn -16.09516 -6.931752 0.9298053
vn -16.08402 -7.082557 -0.001584944
vn -16.1063 -6.780947 1.861196
vn -13.18763 -11.08264 1.799116
vn -14.5677 -9.148389 3.598232
vn -11.80757 -13.0169 0
vn -15.26228 -8.03139 -2.979822
vn -16.00829 -6.946694 -2.082373
vn -14.51626 -9.116088 -3.877272
vn -16.80435 -2.515148 -4.488416
vn -15.42511 -5.00011 -5.970647
vn -14.04587 -7.485071 -7.452879
vn -16.04232 -6.928944 0.8434375
vn -16.57508 -5.59281 1.686875
vn -15.50957 -8.265078 0
vn -17.32041 1.734105 0.6669893
vn -17.07393 3.784128 1.737644
vn -17.56688 -0.3159187 -0.4036655
vn -12.7028 6.319253 -9.400538
vn -12.85293 9.856435 -6.819895
vn -12.55267 2.782073 -11.98118
vn -13.28712 3.540321 -9.994079
vn -15.07917 -0.4255174 -9.016421
vn -11.49508 7.506159 -10.97174
vn -13.17332 8.602031 7.831159
vn -9.218421 12.68461 3.855105
vn -5.263526 16.7672 -0.1209494
vn -14.52738 9.83506 0.49012
vn -14.97405 9.199787 -0.001475566
vn -14.08072 10.47033 0.9817154
vn -9.373216 7.55704 5.668773
vn -17.30659 -0.3112375 3.040278
vn -1.439842 15.42532 8.297268
vn -3.561653 5.096406 3.150917
vn -4.164834 13.26726 -10.74673
vn -2.958473 -3.074449 17.04856
vn 6.12516 1.472639 -16.40646
vn 1.49017 -7.908335 -8.093601
vn -3.144821 -17.28931 0.2192587
vn -3.635562 -11.43712 -11.78614
vn 0 -9.50584 -14.78165
vn -7.271124 -13.36839 -8.790626
vn 0 0 -17.57436
vn -8.670906 0 -15.28639
vn -10.36038 -2.14326 -13.66991
vn -12.04984 -4.28652 -12.05343
vn 1.695715 -3.983522 -10.20163
vn 11.71934 5.075527 -12.07287
vn -8.327913 -13.04257 -8.330391
vn 10.39337 -8.25051 -9.24695
vn 5.610638 -13.07002 -10.32247
vn 15.17611 -3.430998 -8.171427
vn 5.336737 -3.413351 -15.73687
vn 2.280794 -6.826702 -16.03285
vn 8.39268 0 -15.44089
vn 1.657932 -11.125 -13.21761
vn 3.315863 -9.335109 -14.51616
vn 0 -12.91488 -11.91906
vn 3.589618 3.857172 -15.81935
vn 7.179236 7.714343 -14.06434
vn 8.04401 12.50826 -7.631895
vn 9.735196 14.3576 -2.818421
vn 6.352823 10.65892 -12.44537
vn 5.019314 10.95579 -12.792
vn 2.509657 8.362079 -14.69636
vn 0 5.768366 -16.60073
vn 0.02976422 5.738722 -16.6109
vn 0.05952844 5.777688 -16.59738
vn 0 5.699757 -16.62441
vn -16.06681 2.309755 -6.73652
vn -16.60073 1.095269 -5.32071
vn -17.13464 -0.119218 -3.9049
vn -12.47528 3.805658 -8.841684
vn -7.81552 7.611316 -13.77838
vn -17.13503 0 -3.90499
vn 15.46435 6.650423 -1.913242
vn 13.84364 10.81272 -0.5449724
vn 17.08506 2.488124 -3.281512
vn 12.14803 -12.66183 0.07474522
vn 12.73963 -12.0911 0.6044236
vn 11.55642 -13.23255 -0.4549332
vn 9.109866 -12.90287 -7.706135
vn 12.45781 -3.590951 -1.288543
vn 15.80575 5.720967 5.129049
vn 14.66724 -4.214099 0.03486151
vn 12.77633 -10.83959 -5.303482
vn 16.55814 2.411389 5.373205
vn 9.767886 -5.616668 8.413451
vn 14.75448 -9.547958 -0.0003669303
vn 4.781291 -1.685377 16.82727
vn 11.15355 3.042381 7.896537
vn 4.732731 6.084763 15.79352
vn 17.57436 0 -0.0004415225
vn 16.80316 0 5.148976
vn 14.71691 -5.993838 1.38913
vn 12.63066 -11.98768 -2.370716
vn 14.97156 2.443305 0.05687095
vn 13.62209 10.63968 3.177123
vn 16.32103 -5.753068 -3.063381
vn -2.059276 7.498202 8.417212
vn -9.163301 14.9964 -0.0003238334
vn 5.04475 0 16.83475
vn -6.718338 -16.23952 -0.0002088138
vn -4.612804 -8.119702 8.69719
vn -2.507271 0.0001204711 17.39459
vn 9.565205 8.684834 3.144865
vn 2.231324 17.37048 1.464888
vn 16.89909 -0.0008119791 4.824841
vn 16.8474 0.2608917 4.98583
vn 16.79575 0.5217835 5.146706
vn 16.89905 0 4.824955
vn 15.6969 5.197905 -2.103811
vn 16.87027 0.5240984 -4.89668
vn 14.52352 9.871712 0.6890591
vn 4.209589 16.64755 -3.741219
vn 8.439836 12.50893 2.552766
vn 12.67008 8.370318 8.846751
vn 12.21029 11.7915 1.64738
vn 10.25102 14.22206 -1.227927
vn 14.16956 9.360929 4.522688
vn 14.53614 2.603429 -2.36214
vn 14.46732 -3.385121 -9.385942
vn 14.60497 8.591978 4.661662
vn 1.889 17.40112 1.578263
vn 0.9445025 17.48774 0.7891316
vn 5.009727E-06 17.57436 0
vn 16.34835 -6.449006 0
vn 13.38783 3.703229 -1.42789
vn 10.42731 13.85546 -2.855779
vn 0.1539922 -5.826258 8.229119
vn -3.829113 -17.14975 0.2865642
vn 4.137097 5.497236 16.17167
vn 0.6887118 5.651872 16.62649
vn 0.3443584 11.61312 8.313246
vn -15.39481 -2.17931 -8.19199
vn -13.1234 4.92535 -0.6911686
vn -10.85199 12.03001 6.809653
vn -1.893862 17.43156 1.188396
vn -1.696206 17.43517 1.385037
vn -1.49855 17.43877 1.581678
vn -11.32078 11.17768 5.131351
vn -12.91823 11.91543 0
vn -9.723326 10.43993 10.2627
vn -11.69026 8.861471 9.678342
vn -10.9456 6.593886 11.65977
vn -10.20095 4.326301 13.64119
vn 9.835903 -13.65378 5.068288
vn 2.047283 1.367615 1.183625
vn -5.741337 16.38901 -2.701038
vn -3.94636 16.8976 -2.784853
vn -3.461227 17.03576 -2.516926
vn -2.976094 17.17391 -2.249
vn -2.391079 17.39973 0.2691851
vn -1.899874 17.46307 0.5383701
vn -2.882285 17.3364 0
vn -17.40087 -2.463291 0
vn -11.5022 6.766154 2.323765
vn -5.60352 15.9956 4.64753
vn 0.3790441 17.37037 -2.642853
vn 1.630665 17.35338 -1.321431
vn 2.882285 17.3364 -8.179232E-06
vn 9.462101 14.80969 -3.881672E-05
vn 8.525319 15.26736 -0.9994484
vn 7.588536 15.72504 -1.998858
vn 9.129163 1.407786 2.586133
vn 10.62022 -13.01218 5.172267
vn 7.638101 15.82775 0
vn 1.902878 17.47104 0
vn 2.377945 17.40202 0.2671801
vn 2.853013 17.333 0.5343603
vn 0 -17.57436 0
vn 3.912211 -16.49729 1.569535
vn 7.824422 -15.42021 3.13907
vn -1.189294 -17.12183 -2.516697
vn -2.378587 -16.6693 -5.033394
vn 2.124609 -17.00346 -2.314098
vn 4.249217 -17.05293 0
vn 0 -16.954 -4.628196
vn -2.656752 0.4114455 0.0571731
vn -5.313504 -16.75147 0.1143462
vn -5.905888 -16.20025 -3.172442
vn -6.541084 -15.78401 -4.115523
vn -5.270691 -16.6165 -2.229361
vn 1.679879 -11.97007 3.858953
vn 2.233522 -15.62679 -7.724832
vn 1.126236 -8.31334 15.44274
vn -1.382472 16.56635 3.845497
vn -2.764944 15.55834 7.690994
vn 2.018458 -17.45807 0
vn 1.009229 -17.49559 -0.6016763
vn 0 -17.53312 -1.203353
vn -7.553391 4.21406 -1.586411
vn 0 17.38721 -2.557972
vn -15.10678 -8.959088 -0.6148494
vn -3.547075 2.292372 6.399257
vn -1.227051 -11.98135 12.79843
vn -5.867099 16.56609 8.204585E-05
vn 5.848505 -16.51359 -1.398055
vn 6.900404 -16.09291 -0.6990275
vn 7.952305 -15.67224 0

usemtl New_Material
f 4/4/3 3/3/1 2/2/2 1/1/1
f 3/3/6 6/6/4 5/5/5 2/2/4
f 8/8/9 7/7/8 6/6/7 3/3/8
f 9/9/11 8/8/10 3/3/12 4/4/10
f 6/6/15 11/11/13 10/10/14 5/5/13
f 11/11/18 13/13/16 12/12/17 10/10/16
f 15/15/21 14/14/20 13/13/19 11/11/20
f 7/7/23 15/15/22 11/11/24 6/6/22
f 17/17/27 16/16/25 15/15/26 7/7/25
f 16/16/30 18/18/28 14/14/29 15/15/28
f 20/20/33 19/19/32 18/18/31 16/16/32
f 21/21/35 20/20/34 16/16/36 17/17/34
f 23/23/39 22/22/37 8/8/38 9/9/37
f 22/22/42 17/17/40 7/7/41 8/8/40
f 24/24/45 21/21/44 17/17/43 22/22/44
f 25/25/47 24/24/46 22/22/48 23/23/46
f 13/29/51 27/28/49 26/27/50 12/26/49
f 27/28/54 29/31/52 28/30/53 26/27/52
f 31/33/57 30/32/56 29/31/55 27/28/56
f 14/34/59 31/33/58 27/28/60 13/29/58
f 29/31/63 33/36/61 32/35/62 28/30/61
f 33/36/66 35/38/64 34/37/65 32/35/64
f 37/40/69 36/39/68 35/38/67 33/36/68
f 30/32/71 37/40/70 33/36/72 29/31/70
f 39/42/75 38/41/73 37/40/74 30/32/73
f 38/41/78 40/43/76 36/39/77 37/40/76
f 42/45/79 41/44/80 40/43/79 38/41/81
f 43/46/83 42/45/82 38/41/83 39/42/84
f 18/48/87 44/47/85 31/33/86 14/34/85
f 44/47/90 39/42/88 30/32/89 31/33/88
f 45/49/91 43/46/92 39/42/91 44/47/93
f 19/50/95 45/49/94 44/47/95 18/48/96
f 49/54/99 48/53/97 47/52/98 46/51/97
f 48/53/100 51/56/100 50/55/100 47/52/100
f 35/58/103 36/57/102 51/56/101 48/53/102
f 34/59/105 35/58/104 48/53/106 49/54/104
f 55/63/109 54/62/107 53/61/108 52/60/107
f 54/62/112 57/65/110 56/64/111 53/61/110
f 47/52/100 50/55/100 57/65/100 54/62/100
f 46/51/114 47/52/113 54/62/115 55/63/113
f 57/65/100 59/67/116 58/66/117 56/64/116
f 59/67/120 61/69/118 60/68/119 58/66/118
f 63/71/123 62/70/122 61/69/121 59/67/122
f 50/55/100 63/71/100 59/67/100 57/65/100
f 51/56/100 64/72/100 63/71/100 50/55/100
f 64/72/126 65/73/124 62/70/125 63/71/124
f 40/75/129 41/74/128 65/73/127 64/72/128
f 36/57/131 40/75/130 64/72/132 51/56/130
f 69/79/135 68/78/133 67/77/134 66/76/133
f 68/78/138 71/81/136 70/80/137 67/77/136
f 53/83/141 56/82/140 71/81/139 68/78/140
f 52/84/143 53/83/142 68/78/144 69/79/142
f 73/88/147 72/87/145 4/86/146 1/85/145
f 72/87/150 74/90/148 9/89/149 4/86/148
f 67/77/153 70/80/152 74/90/151 72/87/152
f 66/76/155 67/77/154 72/87/156 73/88/154
f 74/90/159 75/92/157 23/91/158 9/89/157
f 23/91/160 75/92/161 76/94/162 25/93/161
f 75/92/165 78/96/163 77/95/164 76/94/163
f 70/80/167 78/96/166 75/92/168 74/90/166
f 71/81/171 79/97/169 78/96/170 70/80/169
f 78/96/172 79/97/173 80/98/174 77/95/173
f 79/97/177 58/100/175 60/99/176 80/98/175
f 56/82/179 58/100/178 79/97/180 71/81/178
f 84/104/182 83/103/183 82/102/182 81/101/181
f 83/103/185 76/106/186 77/105/185 82/102/184
f 24/108/187 25/107/188 76/106/187 83/103/189
f 21/109/191 24/108/190 83/103/191 84/104/183
f 45/113/193 86/112/194 85/111/193 43/110/192
f 86/112/196 84/104/197 81/101/196 85/111/195
f 20/114/198 21/109/199 84/104/198 86/112/200
f 19/115/202 20/114/201 86/112/202 45/113/203
f 42/119/205 87/118/206 65/117/205 41/116/204
f 87/118/208 88/121/209 62/120/208 65/117/207
f 85/111/210 81/101/211 88/121/210 87/118/212
f 43/110/214 85/111/213 87/118/214 42/119/215
f 88/121/217 89/123/218 61/122/217 62/120/216
f 89/123/220 80/125/221 60/124/220 61/122/219
f 82/102/222 77/105/223 80/125/222 89/123/224
f 81/101/226 82/102/225 89/123/226 88/121/227
f 93/129/228 92/128/228 91/127/228 90/126/228
f 92/128/228 69/131/229 66/130/230 91/127/229
f 55/133/232 52/132/231 69/131/228 92/128/231
f 46/134/234 55/133/233 92/128/235 93/129/233
f 32/138/237 95/137/236 94/136/183 28/135/236
f 95/137/228 93/129/228 90/126/228 94/136/228
f 49/139/228 46/134/228 93/129/228 95/137/228
f 34/140/239 49/139/238 95/137/240 32/138/238
f 26/144/243 96/143/241 10/142/242 12/141/241
f 96/143/245 97/146/244 5/145/183 10/142/244
f 94/136/248 90/126/247 97/146/246 96/143/247
f 28/135/250 94/136/249 96/143/251 26/144/249
f 97/146/183 98/148/183 2/147/183 5/145/183
f 98/148/254 73/150/252 1/149/253 2/147/252
f 91/127/257 66/130/256 73/150/255 98/148/256
f 90/126/228 91/127/228 98/148/228 97/146/228

g Tree
v 22.9922 0.03000105 -2.379031
v 22.98937 9.63282 -2.37727
v 23.63372 0.03000105 -1.350435
v 23.63004 9.63282 -1.348144
v 24.91777 0.03000105 -1.352127
v 24.91137 9.63282 -1.348144
v 25.5605 0.03000105 -2.382539
v 25.55204 9.63282 -2.377271
v 24.91802 0.03000105 -3.410538
v 24.91137 9.63282 -3.406397
v 23.6339 0.03000105 -3.408801
v 23.63004 9.63282 -3.406397
v 24.27456 0.03000105 -2.379673
v 24.2707 9.63282 -2.37727

vt -0.01983417 7.266133E-05
vt -0.01983432 0.5464834
vt 0.04914434 7.266134E-05
vt 0.04914413 0.5464834
vt -0.1518014 3.630924E-05
vt -0.1520109 0.546447
vt -0.07873726 3.630924E-05
vt -0.07910166 0.546447
vt -0.1708496 -4.784413E-06
vt -0.1712346 0.5464059
vt -0.1017469 -4.784414E-06
vt -0.1022561 0.546406
vt -0.05725348 8.857667E-05
vt -0.05725247 0.5464996
vt 0.0117251 8.857666E-05
vt 0.01172589 0.5464994
vt 0.07856972 1.518081E-05
vt 0.07894854 0.5464259
vt 0.151638 1.518081E-05
vt 0.1518578 0.5464259
vt 0.1101705 2.302369E-05
vt 0.1104028 0.5464337
vt 0.1792111 2.302369E-05
vt 0.1793813 0.5464337
vt -0.1881037 0.09394193
vt -0.1151356 0.09390537
vt -0.1516006 0.1524701
vt 0.1882646 0.09404209
vt 0.1153553 0.09404209
vt 0.1518099 0.1526005
vt -0.07853649 0.1523738
vt 0.07890058 0.1526005
vt -0.04196436 0.0937423
vt 0.04244591 0.09404208
vt -0.07852209 0.03524806
vt 0.07890059 0.03548368
vt -0.1515903 0.03534693
vt 0.1518099 0.03548368

vn -17.57436 -0.005465015 0.005331624
vn -17.57436 -0.005716545 0.003636807
vn -8.519819 -0.006406315 15.3711
vn -8.528068 -0.007819965 15.36653
vn 8.531407 0.0001948019 15.36468
vn 8.529737 -0.0001286143 15.3656
vn 17.57435 0.01491666 -0.01158142
vn 17.57435 0.01434232 -0.007730723
vn 8.515965 0.01364497 -15.37323
vn 8.52793 0.01162422 -15.3666
vn -8.534926 0.00132084 -15.36272
vn -8.531429 0.0006967147 -15.36466
vn 0 -17.57436 0
vn 0 17.57436 0

usemtl ProBuilderDefault
f 99/175/270 111/176/270 101/177/270
f 101/177/270 111/176/270 103/181/270
f 103/181/270 111/176/270 105/183/270
f 105/183/270 111/176/270 107/185/270
f 107/185/270 111/176/270 109/187/270
f 109/187/270 111/176/270 99/175/270
f 102/180/271 112/179/271 100/178/271
f 104/182/271 112/179/271 102/180/271
f 106/184/271 112/179/271 104/182/271
f 108/186/271 112/179/271 106/184/271
f 110/188/271 112/179/271 108/186/271
f 100/178/271 112/179/271 110/188/271
f 102/154/261 100/152/259 99/151/258
f 99/151/258 101/153/260 102/154/261
f 104/158/263 102/156/261 101/155/260
f 101/155/260 103/157/262 104/158/263
f 106/162/265 104/160/263 103/159/262
f 103/159/262 105/161/264 106/162/265
f 108/166/267 106/164/265 105/163/264
f 105/163/264 107/165/266 108/166/267
f 110/170/269 108/168/267 107/167/266
f 107/167/266 109/169/268 110/170/269
f 100/174/259 110/172/269 109/171/268
f 109/171/268 99/173/258 100/174/259

